<svg version="1" xmlns="http://www.w3.org/2000/svg" width="1365.333" height="1365.333" viewBox="0 0 1024.000000 1024.000000"><path d="M0 512v512h1024V0H0v512zm520.7-217c24.7 3.3 43.2 10.3 60.2 23 17.8 13.2 32.3 34.4 40.6 59.4 5.4 16 7.6 27.9 10 52.3l.6 6.3h-53.8l-.6-7.8c-1.6-19.8-6.4-38.9-13.4-53.2-8-16.4-21.4-27.6-38.8-32.3-21.8-5.9-48.6-3.3-66.5 6.6-10.2 5.5-23.9 19.4-29.9 30.1-8.7 15.4-13.9 31.8-17.8 55.9-1.6 10-1.8 18.4-1.8 77.7 0 58.7.2 67.9 1.8 78.5 10.1 67.9 41.3 99 94.5 94.4 44.7-3.9 62.6-23.6 70.7-77.6.8-5.7 1.5-11.9 1.5-13.8V591h54.1l-.6 5.7c-3.2 30.1-7.2 46.7-15.6 65-13.8 30.1-39.2 52.9-69.4 62.2-15.3 4.8-25.3 6.3-45 6.8-22.3.6-33.5-.8-50.1-6.2-19-6.2-33.8-15.9-48.9-31.7-23.5-24.6-37.4-56-44.2-99.8-1.6-10.2-1.8-19.1-1.8-80.5s.2-70.3 1.8-80.5c6.8-43.6 20.6-74.2 45.3-99.9 18.5-19.4 45.5-32.9 72.9-36.5 13.3-1.7 33.5-2 44.2-.6zm-329.9 6.5c14.5 2.1 22.7 4.2 32.2 8.2 37.3 15.4 60.9 45.6 69.7 88.8 2.5 12.7 2.5 51 0 64-10.6 53.4-41.4 83.9-94.7 93.7-9.2 1.7-16.9 2-61.2 2.5l-50.8.5V726H33V300h74c60.2 0 75.9.3 83.8 1.5zm665.1 1.7c.5 1.8 31.1 96.7 67.9 210.8 36.9 114.1 67.3 208.5 67.7 209.7l.6 2.3h-54l-2.7-8.8c-1.5-4.8-9.1-29.9-16.9-55.7l-14.3-47-72.1-.3c-68-.2-72.2-.1-72.8 1.5-.4 1-8 26.1-16.8 55.8l-16.1 54-27.3.3c-23 .2-27.2 0-26.8-1.2.6-1.4 129.8-402.6 134.2-416.4l2.6-8.2h45.7l1.1 3.2z"/><path d="M86 429v84.1l50.3-.3c44.2-.3 50.9-.6 56.2-2.1 18.4-5.4 31.8-16.5 39.9-32.7 7.9-16.1 9-22 9-47 0-19-.3-22.4-2.2-29.3-6.5-23.6-18.9-40-36.7-48.7-14.7-7.2-15.3-7.2-68.7-7.7l-47.8-.5V429zM831 375.5c0 .2-12.6 42.7-28.1 94.2-15.4 51.6-28.3 95-28.6 96.5l-.5 2.8h58.1c31.9 0 58.1-.3 58.2-.8.1-1.8-57.7-193.2-58.3-193.2-.5 0-.8.2-.8.5z"/></svg>